<svg width="145" height="145" viewBox="0 0 145 145" fill="none" xmlns="http://www.w3.org/2000/svg">
<g clip-path="url(#clip0)">
<path d="M0 8.64229V112.568H67.926V127.829H25.3062V136.358H119.694V127.829H76.4548V112.568H145V8.64229H0ZM136.471 104.039H8.52884V92.8606H68.2404V98.4499H76.7693V92.8606H136.471V104.039ZM8.52884 84.3318V17.1711H136.471V84.3318H8.52884Z" fill="#808080"/>
<path d="M40.3796 37.3069H36.1152C24.9992 37.3069 15.9558 46.3503 15.9558 57.4662C15.9558 68.5804 24.9992 77.6227 36.1152 77.6227C47.2311 77.6227 56.2745 68.5804 56.2745 57.4662V53.2018H40.3796V37.3069ZM46.9357 61.7303C45.2311 66.0383 41.0232 69.0936 36.1152 69.0936C29.702 69.0936 24.4847 63.8773 24.4847 57.4659C24.4847 52.5576 27.5411 48.3494 31.8507 46.6451V61.7303H46.9357Z" fill="#808080"/>
<path d="M49.7486 23.6735H45.4841V48.0973H69.9079V43.8329C69.9079 32.7169 60.8645 23.6735 49.7486 23.6735ZM54.013 39.5682V33.0118C57.0015 34.1936 59.3876 36.5797 60.5697 39.5682H54.013Z" fill="#808080"/>
<path d="M82.7395 39.8397H91.2683V51.7928H82.7395V39.8397Z" fill="#808080"/>
<path d="M82.7395 26.6674H91.2683V32.7709H82.7395V26.6674Z" fill="#808080"/>
<path d="M99.7971 39.8397H108.326V51.7928H99.7971V39.8397Z" fill="#808080"/>
<path d="M99.7971 26.6674H108.326V32.7709H99.7971V26.6674Z" fill="#808080"/>
<path d="M116.855 39.8397H125.384V51.7928H116.855V39.8397Z" fill="#808080"/>
<path d="M116.855 26.6674H125.384V32.7709H116.855V26.6674Z" fill="#808080"/>
<path d="M122.465 56.992L110.43 65.6275L100.4 59.916L84.8042 69.3068L89.2034 76.6135L100.521 69.7992L110.96 75.7441L127.437 63.9217L122.465 56.992Z" fill="#808080"/>
</g>
<defs>
<clipPath id="clip0">
<rect width="145" height="145" fill="white"/>
</clipPath>
</defs>
</svg>
