<svg width="146" height="146" viewBox="0 0 146 146" fill="none" xmlns="http://www.w3.org/2000/svg">
<g clip-path="url(#clip0)">
<path d="M131.034 38.4993L94.6332 2.09834C93.8368 1.30169 92.7561 0.853943 91.6296 0.853943H30.2028C21.5881 0.853943 14.5793 7.86265 14.5793 16.4771V130.23C14.5793 138.845 21.5881 145.854 30.2025 145.854H116.655C125.27 145.854 132.279 138.845 132.279 130.23V41.5029C132.279 40.3764 131.831 39.2959 131.034 38.4993ZM95.8776 15.3576L117.775 37.2549H103.005C99.075 37.2549 95.8776 34.0575 95.8776 30.1275V15.3576ZM116.655 137.358H30.2025C26.2728 137.358 23.0754 134.16 23.0754 130.23V16.4771C23.0754 12.5474 26.2728 9.35004 30.2025 9.35004H87.3812V30.1275C87.3812 38.7423 94.3899 45.751 103.005 45.751H123.782V130.23C123.782 134.16 120.585 137.358 116.655 137.358Z" fill="#1A1C4A"/>
<path d="M55.2284 64.5557H37.0278C34.6818 64.5557 32.7798 66.4577 32.7798 68.8037V87.0043C32.7798 89.3504 34.6818 91.2524 37.0278 91.2524H55.2284C57.5745 91.2524 59.4765 89.3504 59.4765 87.0043V68.8034C59.4765 66.4574 57.5748 64.5557 55.2284 64.5557ZM50.9804 82.7563H41.2759V73.0515H50.9804V82.7563Z" fill="#1A1C4A"/>
<path d="M55.2284 100.957H37.0278C34.6818 100.957 32.7798 102.859 32.7798 105.205V123.406C32.7798 125.752 34.6818 127.654 37.0278 127.654H55.2284C57.5745 127.654 59.4765 125.752 59.4765 123.406V105.205C59.4765 102.859 57.5748 100.957 55.2284 100.957ZM50.9804 119.157H41.2759V109.453H50.9804V119.157Z" fill="#1A1C4A"/>
<path d="M69.1809 68.8037C69.1809 71.1498 71.0829 73.0518 73.429 73.0518H91.6296C93.9756 73.0518 95.8776 71.1498 95.8776 68.8037C95.8776 66.4577 93.9756 64.5557 91.6296 64.5557H73.429C71.0829 64.5557 69.1809 66.4574 69.1809 68.8037Z" fill="#1A1C4A"/>
<path d="M109.83 82.7563H73.429C71.0829 82.7563 69.1809 84.6583 69.1809 87.0043C69.1809 89.3504 71.0829 91.2524 73.429 91.2524H109.83C112.176 91.2524 114.078 89.3504 114.078 87.0043C114.078 84.6583 112.176 82.7563 109.83 82.7563Z" fill="#1A1C4A"/>
<path d="M73.429 109.453H91.6296C93.9756 109.453 95.8776 107.551 95.8776 105.205C95.8776 102.859 93.9756 100.957 91.6296 100.957H73.429C71.0829 100.957 69.1809 102.859 69.1809 105.205C69.1809 107.551 71.0829 109.453 73.429 109.453Z" fill="#1A1C4A"/>
<path d="M109.83 119.157H73.429C71.0829 119.157 69.1809 121.059 69.1809 123.405C69.1809 125.751 71.0829 127.653 73.429 127.653H109.83C112.176 127.653 114.078 125.751 114.078 123.405C114.078 121.059 112.176 119.157 109.83 119.157Z" fill="#1A1C4A"/>
<path d="M37.0278 32.1006H59.7784C62.1244 32.1006 64.0264 30.1986 64.0264 27.8525C64.0264 25.5065 62.1244 23.6045 59.7784 23.6045H37.0278C34.6818 23.6045 32.7798 25.5065 32.7798 27.8525C32.7798 30.1986 34.6818 32.1006 37.0278 32.1006Z" fill="#1A1C4A"/>
<path d="M37.0278 50.3012H73.4288C75.7748 50.3012 77.6768 48.3992 77.6768 46.0532C77.6768 43.7071 75.7748 41.8051 73.4288 41.8051H37.0278C34.6818 41.8051 32.7798 43.7071 32.7798 46.0532C32.7798 48.3992 34.6818 50.3012 37.0278 50.3012Z" fill="#1A1C4A"/>
</g>
<defs>
<clipPath id="clip0">
<rect x="0.928955" y="0.853943" width="145" height="145" fill="white"/>
</clipPath>
</defs>
</svg>
