<svg width="146" height="146" viewBox="0 0 146 146" fill="none" xmlns="http://www.w3.org/2000/svg">
<g clip-path="url(#clip0)">
<path d="M143.513 0.290695C143.513 0.290695 143.512 0.290695 143.512 0.290695H3.34538C2.01108 0.290393 0.929013 1.37185 0.928711 2.70615C0.928711 2.70646 0.928711 2.70706 0.928711 2.70736V51.0407H5.76204V5.12403H141.095V58.2907H56.512V63.124H143.512C144.846 63.1243 145.928 62.0429 145.929 60.7086C145.929 60.7083 145.929 60.7077 145.929 60.7074V2.70736C145.929 1.37306 144.848 0.290997 143.513 0.290695Z" fill="#1A1C4A"/>
<path d="M129.012 12.374H80.6787V17.2074H129.012V12.374Z" fill="#1A1C4A"/>
<path d="M136.262 26.874H87.9287V31.7074H136.262V26.874Z" fill="#1A1C4A"/>
<path d="M126.595 41.374H78.262V46.2074H126.595V41.374Z" fill="#1A1C4A"/>
<path d="M78.0693 21.1266C76.4148 17.1497 71.8497 15.2671 67.8731 16.9216C67.8051 16.95 67.7375 16.979 67.6704 17.0092L48.0749 27.1743C48.8476 25.5727 49.2533 23.8188 49.262 22.0407C49.262 15.3674 43.852 9.95737 37.1787 9.95737C30.5054 9.95737 25.0954 15.3674 25.0954 22.0407C25.1044 24.6637 25.9753 27.2112 27.574 29.2907H27.4734C20.6137 29.3366 14.4901 33.6011 12.0683 40.0195L5.61704 62.2555C4.08125 66.2449 6.07017 70.7241 10.0598 72.2599C11.8789 72.9602 13.8953 72.9484 15.7063 72.2267C17.7871 71.3884 19.4062 69.6955 20.1515 67.5798L22.6787 59.5368V94.5129C20.5992 92.9146 18.0517 92.0437 15.4287 92.0343C8.76536 92.0243 3.35535 97.418 3.34538 104.082C3.34054 107.345 4.65763 110.471 6.99666 112.747C3.28466 114.643 0.943211 118.455 0.928711 122.623V142.874C0.928409 144.208 2.00987 145.29 3.34417 145.291C3.34447 145.291 3.34508 145.291 3.34538 145.291H27.512C28.8463 145.291 29.9284 144.21 29.9287 142.875C29.9287 142.875 29.9287 142.874 29.9287 142.874V122.623C29.9169 119.197 28.3256 115.969 25.6162 113.874H43.9082C41.1985 115.969 39.6072 119.197 39.5957 122.623V142.874C39.5954 144.208 40.6768 145.29 42.0111 145.291C42.0114 145.291 42.012 145.291 42.0123 145.291H66.179C67.5133 145.291 68.5954 144.21 68.5957 142.875C68.5957 142.875 68.5957 142.874 68.5957 142.874V122.623C68.5812 118.455 66.2397 114.643 62.5277 112.747C67.2991 108.09 67.3919 100.446 62.7347 95.6747C59.8667 92.7364 55.7019 91.457 51.679 92.2787V42.8419L73.8643 31.3225C77.8409 29.6683 79.7235 25.1032 78.0693 21.1266ZM37.1787 14.7907C41.1828 14.7907 44.4287 18.0366 44.4287 22.0407C44.4287 26.0448 41.1828 29.2907 37.1787 29.2907C33.1764 29.2865 29.9329 26.043 29.9287 22.0407C29.9287 18.0366 33.1746 14.7907 37.1787 14.7907ZM15.4287 96.8676C19.4328 96.8676 22.6787 100.114 22.6787 104.118C22.6787 108.122 19.4328 111.368 15.4287 111.368C11.4246 111.368 8.17871 108.122 8.17871 104.118C8.18294 100.115 11.4264 96.8722 15.4287 96.8676ZM25.0954 140.457H5.76204V122.623C5.76688 119.127 8.59951 116.295 12.0952 116.291H18.7622C22.2576 116.295 25.0905 119.127 25.0954 122.623V140.457ZM63.762 122.623V140.457H44.4287V122.623C44.4335 119.127 47.2662 116.295 50.7619 116.291H57.4289C60.9246 116.295 63.7572 119.127 63.762 122.623ZM54.0954 96.8676C58.0977 96.8719 61.3412 100.115 61.3454 104.118C61.3454 108.122 58.0995 111.368 54.0954 111.368C50.0913 111.368 46.8454 108.122 46.8454 104.118C46.8454 100.114 50.0913 96.8676 54.0954 96.8676ZM73.6471 25.1582C73.3236 25.9883 72.6593 26.6399 71.8228 26.9471L48.1495 39.2286C47.3483 39.6443 46.8454 40.4717 46.8454 41.374V94.5129C42.3187 97.86 40.7505 103.918 43.085 109.041H39.5954V67.9574H34.762V109.041H26.439C27.1266 107.521 27.4888 105.875 27.503 104.207H27.512V43.7907C27.5117 42.4558 26.4294 41.374 25.0948 41.3743C24.0396 41.3746 23.1065 42.0595 22.7899 43.0663L15.5737 66.0292C15.0269 67.5372 13.361 68.3165 11.853 67.7695C11.7472 67.7311 11.6436 67.6867 11.5427 67.6362C10.1486 66.9158 9.55682 65.2338 10.193 63.7989L16.644 41.5628C18.3837 37.095 22.6784 34.1449 27.4731 34.124H44.5846C44.9719 34.1246 45.3537 34.0313 45.6975 33.8528L69.7167 21.3849C71.1577 20.7837 72.8185 21.3988 73.5199 22.7938C73.8918 23.5291 73.938 24.387 73.6471 25.1582Z" fill="#1A1C4A"/>
<path d="M101.194 112.747C105.974 108.09 106.074 100.44 101.417 95.6599C96.7597 90.88 89.1095 90.7804 84.3296 95.4373C79.5497 100.094 79.4501 107.744 84.107 112.524C84.1804 112.6 84.2547 112.674 84.3299 112.747C80.6182 114.643 78.2765 118.455 78.262 122.623V142.874C78.2617 144.208 79.3431 145.29 80.6774 145.291C80.6777 145.291 80.6783 145.291 80.6786 145.291H104.845C106.18 145.291 107.262 144.21 107.262 142.875C107.262 142.875 107.262 142.874 107.262 142.874V122.623C107.247 118.455 104.906 114.643 101.194 112.747ZM92.762 96.8676C96.7661 96.8676 100.012 100.114 100.012 104.118C100.012 108.122 96.7661 111.368 92.762 111.368C88.7578 111.368 85.512 108.122 85.512 104.118C85.5162 100.115 88.7597 96.8722 92.762 96.8676ZM102.429 140.457H83.0953V122.623C83.1001 119.127 85.9328 116.295 89.4285 116.291H96.0955C99.5909 116.295 102.424 119.127 102.429 122.623V140.457Z" fill="#1A1C4A"/>
<path d="M139.861 112.747C144.641 108.09 144.74 100.44 140.083 95.6599C135.426 90.88 127.776 90.7804 122.996 95.4373C118.216 100.094 118.117 107.744 122.774 112.524C122.847 112.6 122.921 112.674 122.997 112.747C119.285 114.643 116.943 118.455 116.929 122.623V142.874C116.928 144.208 118.01 145.29 119.344 145.291C119.344 145.291 119.345 145.291 119.345 145.291H143.512C144.846 145.291 145.928 144.21 145.929 142.875C145.929 142.875 145.929 142.874 145.929 142.874V122.623C145.914 118.455 143.573 114.643 139.861 112.747ZM131.429 96.8676C135.433 96.8676 138.679 100.114 138.679 104.118C138.679 108.122 135.433 111.368 131.429 111.368C127.425 111.368 124.179 108.122 124.179 104.118C124.183 100.115 127.426 96.8722 131.429 96.8676ZM141.095 140.457H121.762V122.623C121.767 119.127 124.6 116.295 128.095 116.291H134.762C138.258 116.295 141.091 119.127 141.095 122.623V140.457Z" fill="#1A1C4A"/>
</g>
<defs>
<clipPath id="clip0">
<rect x="0.928711" y="0.290695" width="145" height="145" fill="white"/>
</clipPath>
</defs>
</svg>
